<?xml version="1.0" encoding="UTF-8" standalone="no"?>
<!-- Created with Inkscape (http://www.inkscape.org/) -->

<svg
   xmlns:dc="http://purl.org/dc/elements/1.1/"
   xmlns:cc="http://creativecommons.org/ns#"
   xmlns:rdf="http://www.w3.org/1999/02/22-rdf-syntax-ns#"
   xmlns:svg="http://www.w3.org/2000/svg"
   xmlns="http://www.w3.org/2000/svg"
   xmlns:sodipodi="http://sodipodi.sourceforge.net/DTD/sodipodi-0.dtd"
   xmlns:inkscape="http://www.inkscape.org/namespaces/inkscape"
   id="svg4190"
   version="1.1"
   inkscape:version="0.91 r13725"
   width="160"
   height="160"
   viewBox="0 0 160 160"
   sodipodi:docname="minerva_black.svg">
  <metadata
     id="metadata4196">
    <rdf:RDF>
      <cc:Work
         rdf:about="">
        <dc:format>image/svg+xml</dc:format>
        <dc:type
           rdf:resource="http://purl.org/dc/dcmitype/StillImage" />
        <dc:title></dc:title>
      </cc:Work>
    </rdf:RDF>
  </metadata>
  <defs
     id="defs4194" />
  <sodipodi:namedview
     pagecolor="#ffffff"
     bordercolor="#666666"
     borderopacity="1"
     objecttolerance="10"
     gridtolerance="10"
     guidetolerance="10"
     inkscape:pageopacity="0"
     inkscape:pageshadow="2"
     inkscape:window-width="1444"
     inkscape:window-height="861"
     id="namedview4192"
     showgrid="false"
     inkscape:zoom="2"
     inkscape:cx="12.090123"
     inkscape:cy="64.384915"
     inkscape:window-x="0"
     inkscape:window-y="0"
     inkscape:window-maximized="0"
     inkscape:current-layer="g5596"
     units="px" />
  <g
     id="g5454"
     transform="translate(0,140.00008)">
    <g
       id="g5502">
      <g
         transform="matrix(-1,0,0,1,20.0094,0)"
         id="g5596">
        <g
           id="g5634"
           transform="matrix(7.9973745,0,0,7.9973745,-140.00047,-146.96337)">
          <g
             id="g5577">
            <path
               inkscape:connector-curvature="0"
               id="path5553"
               transform="matrix(-1,0,0,1,20.0094,0)"
               d="m 4.9628906,1.9589844 c -1.604399,0.00848 -2.029996,0.1124424 -2.984375,1.9511718 -0.95438,1.8387296 -2.0702471,5.3674163 -1.9707031,7.8632818 0.0347,0.870082 0.3405085,1.412516 0.7578125,2.5 C 1.182931,15.360917 1.9758096,16.25 2.5253906,16.25 c 0.549583,0 1.037252,-1.259447 0.34375,-2.5 C 0.88618162,10.202836 1.9765625,6.28125 1.9765625,6.28125 c 1.503153,3.2930352 3.5972901,2.9277427 5.0175781,1.3144531 0,0 0.9838824,8.4570069 3.0058594,12.1777349 l 0,0.01562 c 6.5e-4,-0.0012 0.0013,-0.0026 0.002,-0.0039 3.64e-4,-7.54e-4 0.0016,-0.0012 0.002,-0.002 0.001,0.0021 0.0029,0.0039 0.0039,0.0059 l 0,-0.0039 c 6.51e-4,0.0013 0.0013,0.0027 0.002,0.0039 l 0,-0.01562 C 12.031744,16.05271 13.015625,7.5957031 13.015625,7.5957031 14.435913,9.2089927 16.53005,9.5742852 18.033203,6.28125 c 0,0 1.090381,3.921586 -0.892578,7.46875 -0.693502,1.240553 -0.205833,2.5 0.34375,2.5 0.549581,0 1.34246,-0.889083 1.759766,-1.976562 0.417304,-1.087484 0.723112,-1.629918 0.757812,-2.5 C 20.101498,9.2775725 18.98563,5.7488858 18.03125,3.9101562 17.076871,2.0714268 16.651274,1.9674644 15.046875,1.9589844 13.442476,1.9505044 13.131722,2.6003505 12.599609,4.6367188 12.067496,6.6730869 11.593134,10.969058 10.007812,13.527344 l -0.002,0 -0.002,0 -0.002,0 C 8.4166311,10.969058 7.9422693,6.6730869 7.4101562,4.6367188 6.8780423,2.6003505 6.5672896,1.9505044 4.9628906,1.9589844 Z"
               style="fill-opacity:1" />
          </g>
          <path
             sodipodi:nodetypes="zccz"
             inkscape:connector-curvature="0"
             id="rect5574"
             d="m 4.3168441,3.2209457 c 0.9123892,0.095881 1.100023,0.559332 1.100023,0.559332 C 3.7939642,3.6210317 3.9253134,5.6447193 3.9253134,5.6447193 2.2589798,5.3690173 3.4044549,3.1250646 4.3168441,3.2209457 Z"
             style="color:#000000;clip-rule:nonzero;display:inline;overflow:visible;visibility:visible;opacity:1;isolation:auto;mix-blend-mode:normal;color-interpolation:sRGB;color-interpolation-filters:linearRGB;solid-color:#000000;solid-opacity:1;fill:#fdfdfd;fill-opacity:1;fill-rule:nonzero;stroke:none;stroke-width:1.89999998;stroke-linecap:round;stroke-linejoin:round;stroke-miterlimit:4;stroke-dasharray:none;stroke-dashoffset:0;stroke-opacity:1;color-rendering:auto;image-rendering:auto;shape-rendering:auto;text-rendering:auto;enable-background:accumulate" />
          <path
             style="color:#000000;clip-rule:nonzero;display:inline;overflow:visible;visibility:visible;opacity:1;isolation:auto;mix-blend-mode:normal;color-interpolation:sRGB;color-interpolation-filters:linearRGB;solid-color:#000000;solid-opacity:1;fill:#fdfdfd;fill-opacity:1;fill-rule:nonzero;stroke:none;stroke-width:1.89999998;stroke-linecap:round;stroke-linejoin:round;stroke-miterlimit:4;stroke-dasharray:none;stroke-dashoffset:0;stroke-opacity:1;color-rendering:auto;image-rendering:auto;shape-rendering:auto;text-rendering:auto;enable-background:accumulate"
             d="m 14.941844,3.2209457 c 0.912389,0.095881 1.100023,0.559332 1.100023,0.559332 -1.622903,-0.159246 -1.491554,1.8644416 -1.491554,1.8644416 -1.666333,-0.275702 -0.520858,-2.5196547 0.391531,-2.4237736 z"
             id="path5594"
             inkscape:connector-curvature="0"
             sodipodi:nodetypes="zccz" />
        </g>
      </g>
    </g>
    <g
       id="g5521">
      <g
         id="g5523" />
    </g>
  </g>
  <g
     id="g4624"
     transform="translate(0,162.00008)">
    <path
       style="fill:#000000;fill-opacity:0"
       d="M 0,0.5 0,0 0.5,0 1,0 1.5,0 2,0 2.5,0 3,0 3.5,0 4,0 4.5,0 5,0 5.5,0 6,0 6.5,0 7,0 7.5,0 8,0 8.5,0 9,0 9.5,0 10,0 10.5,0 11,0 11.5,0 12,0 12.5,0 13,0 13.5,0 14,0 14.5,0 15,0 15.5,0 16,0 16,0.5 16,1 16,1.5 16,2 16,2.5 16,3 16,3.5 16,4 16,4.5 16,5 16,5.5 16,6 15.625,6.125 q -0.375,0.125 -0.5,0.5 L 15,7 14.875,7.375 Q 14.75,7.75 14.5,8 14.25,8.25 14.125,8.625 L 14,9 14,9.5 14,10 13.875,10.375 Q 13.75,10.75 13.5,11 13.25,11.25 13.125,11.625 L 13,12 l 0,0.5 0,0.5 0.125,0.375 q 0.125,0.375 0.5,0.5 L 14,14 14.375,13.875 q 0.375,-0.125 0.5,-0.5 L 15,13 15.125,12.625 q 0.125,-0.375 0.5,-0.5 L 16,12 l 0,0.5 0,0.5 0,0.5 0,0.5 0,0.5 0,0.5 0,0.5 0,0.5 -0.5,0 L 15,16 14.5,16 14,16 13.5,16 13,16 12.5,16 12,16 11.5,16 11,16 10.5,16 10,16 9.5,16 9,16 8.5,16 8,16 7.5,16 7,16 6.5,16 6,16 5.5,16 5,16 4.5,16 4,16 3.5,16 3,16 2.5,16 2,16 1.5,16 1,16 0.5,16 0,16 0,15.5 0,15 0,14.5 0,14 0,13.5 0,13 0,12.5 0,12 0.375,12.125 q 0.375,0.125 0.5,0.5 L 1,13 1.125,13.375 q 0.125,0.375 0.5,0.5 L 2,14 2.375,13.875 q 0.375,-0.125 0.5,-0.5 L 3,13 3,12.5 3,12 2.875,11.625 Q 2.75,11.25 2.5,11 2.25,10.75 2.125,10.375 L 2,10 2,9.5 2,9 1.875,8.625 Q 1.75,8.25 1.5,8 1.25,7.75 1.125,7.375 L 1,7 0.875,6.625 Q 0.75,6.25 0.375,6.125 L 0,6 0,5.5 0,5 0,4.5 0,4 0,3.5 0,3 0,2.5 0,2 0,1.5 0,1 0,0.5 M 8.5,15 Q 9,15 9,14.5 L 9,14 9,13.5 9,13 9.5,13 Q 10,13 10,12.5 l 0,-0.5 0,-0.5 0,-0.5 0,-0.5 0,-0.5 0.5,0 Q 11,10 11,9.5 L 11,9 11,8.5 11,8 11,7.5 11,7 11.5,7 q 0.5,0 1,0 L 13,7 13.5,7 Q 14,7 14,6.5 L 14,6 14.375,5.875 q 0.375,-0.125 0.5,-0.5 L 15,5 15,4.5 Q 15,4 15,3.5 L 15,3 15,2.5 Q 15,2 14.5,2 L 14,2 14,1.5 Q 14,1 13.5,1 L 13,1 12.5,1 Q 12,1 11.5,1 L 11,1 10.5,1 Q 10,1 10,1.5 L 10,2 9.5,2 Q 9,2 9,2.5 L 9,3 9,3.5 Q 9,4 9,4.5 L 9,5 9,5.5 Q 9,6 9.5,6 L 10,6 10,6.5 10,7 9.5,7 Q 9,7 9,7.5 L 9,8 9,8.5 9,9 8.5,9 Q 8,9 7.5,9 L 7,9 7,8.5 7,8 7,7.5 Q 7,7 6.5,7 L 6,7 6,6.5 6,6 6.5,6 Q 7,6 7,5.5 L 7,5 7,4.5 Q 7,4 7,3.5 L 7,3 7,2.5 Q 7,2 6.5,2 L 6,2 6,1.5 Q 6,1 5.5,1 L 5,1 4.5,1 Q 4,1 3.5,1 L 3,1 2.5,1 Q 2,1 2,1.5 L 2,2 1.5,2 Q 1,2 1,2.5 L 1,3 1,3.5 Q 1,4 1,4.5 L 1,5 1.125,5.375 q 0.125,0.375 0.5,0.5 L 2,6 2,6.5 Q 2,7 2.5,7 L 3,7 3.5,7 Q 4,7 4.5,7 L 5,7 5,7.5 5,8 5,8.5 5,9 5,9.5 Q 5,10 5.5,10 L 6,10 6,10.5 6,11 6,11.5 6,12 6,12.5 Q 6,13 6.5,13 l 0.5,0 0,0.5 0,0.5 0,0.5 q 0,0.5 0.5,0.5 0.5,0 1,0"
       id="path4626"
       inkscape:connector-curvature="0" />
  </g>
</svg>
