<?xml version="1.0" standalone="no"?>
<!DOCTYPE svg PUBLIC "-//W3C//DTD SVG 20010904//EN"
 "http://www.w3.org/TR/2001/REC-SVG-20010904/DTD/svg10.dtd">
<svg version="1.0" xmlns="http://www.w3.org/2000/svg"
 width="700.000000pt" height="700.000000pt" viewBox="0 0 700.000000 700.000000"
 preserveAspectRatio="xMidYMid meet">
<metadata>
Created by potrace 1.11, written by Peter Selinger 2001-2013
</metadata>
<g transform="translate(0.000000,700.000000) scale(0.100000,-0.100000)"
fill="#000000" stroke="none">
<path d="M1527 6614 c-1 -1 -36 -4 -77 -7 -313 -25 -473 -150 -684 -537 -26
-47 -51 -92 -56 -100 -6 -8 -14 -24 -19 -35 -5 -11 -37 -78 -71 -150 -209
-439 -438 -1148 -525 -1622 -3 -16 -7 -39 -10 -53 -11 -52 -44 -267 -50 -320
-3 -30 -8 -66 -10 -80 -12 -73 -20 -228 -19 -415 0 -304 12 -355 195 -816 117
-295 193 -444 292 -573 133 -175 260 -272 371 -283 46 -5 56 -2 101 28 95 65
156 219 156 394 0 50 -3 101 -5 115 -3 13 -8 41 -11 62 -11 69 -52 173 -133
333 -113 223 -134 271 -196 458 -51 153 -117 410 -130 502 -3 22 -7 49 -9 60
-14 68 -36 255 -43 365 -6 86 -6 442 0 505 3 28 8 86 11 130 7 83 9 99 19 175
7 50 33 204 40 235 7 35 18 79 23 99 4 13 25 -19 72 -110 218 -421 471 -663
763 -731 38 -9 249 -10 293 -1 59 11 191 60 235 86 25 15 53 30 63 34 35 15
184 133 256 205 41 40 75 72 77 71 1 -2 5 -26 8 -53 4 -28 8 -61 11 -75 2 -14
7 -47 10 -75 3 -27 8 -61 10 -75 2 -14 6 -47 10 -75 3 -27 12 -90 20 -140 8
-49 23 -151 35 -225 11 -74 24 -160 30 -190 5 -30 12 -75 15 -100 4 -25 15
-90 25 -145 11 -55 22 -118 25 -140 4 -22 8 -47 10 -55 3 -8 14 -67 25 -130
28 -159 44 -244 76 -395 2 -11 6 -32 9 -47 3 -15 12 -58 20 -95 8 -37 24 -108
34 -158 11 -49 30 -130 41 -180 12 -49 23 -97 25 -105 2 -9 20 -81 40 -160 20
-80 38 -152 40 -160 41 -165 147 -516 223 -740 102 -298 293 -737 315 -723 15
9 126 247 195 418 93 232 192 527 287 860 40 141 168 649 180 719 3 15 19 87
35 160 16 72 31 145 34 161 3 17 17 84 30 150 14 66 28 136 31 155 3 19 8 42
10 50 2 8 6 32 9 53 3 20 17 99 32 175 14 75 27 151 29 167 3 17 7 41 10 55 3
14 10 52 15 85 5 33 12 71 15 85 4 23 9 54 21 140 3 19 11 73 19 120 8 47 17
105 20 130 3 25 8 52 10 60 2 8 7 40 10 70 3 30 8 66 10 80 2 14 7 43 9 65 3
22 8 56 10 75 3 19 10 73 17 120 6 47 12 86 13 88 2 1 39 -32 82 -75 125 -123
244 -207 380 -266 116 -51 170 -62 314 -61 146 0 210 14 330 74 212 106 424
352 595 689 l53 104 11 -39 c12 -44 47 -235 56 -304 10 -75 16 -140 31 -310 5
-57 4 -439 -1 -505 -7 -98 -16 -201 -21 -235 -8 -51 -23 -152 -28 -175 -2 -11
-7 -40 -11 -65 -13 -81 -73 -313 -113 -435 -64 -195 -94 -265 -200 -473 -124
-242 -152 -336 -153 -513 0 -154 49 -298 127 -375 99 -95 221 -62 394 106 148
144 249 321 400 700 181 455 194 512 194 835 0 127 -3 257 -7 290 -4 33 -10
85 -13 115 -6 59 -12 100 -19 140 -2 14 -7 43 -10 65 -21 151 -70 395 -110
555 -73 287 -240 813 -300 945 -7 17 -31 75 -53 130 -135 339 -345 711 -479
851 -165 171 -298 210 -723 208 -221 0 -310 -14 -416 -64 -191 -91 -307 -300
-428 -765 -1 -5 -8 -29 -15 -52 -13 -49 -107 -462 -114 -508 -3 -16 -10 -50
-16 -75 -5 -25 -12 -60 -16 -78 -3 -18 -12 -65 -21 -105 -8 -39 -17 -88 -20
-107 -3 -19 -7 -43 -10 -52 -3 -9 -7 -27 -9 -40 -19 -98 -39 -192 -50 -238 -8
-30 -16 -68 -18 -85 -3 -16 -9 -48 -15 -70 -6 -22 -14 -56 -17 -75 -11 -65
-117 -484 -161 -635 -57 -198 -144 -450 -210 -605 -89 -213 -226 -480 -246
-480 -5 0 -14 12 -21 28 -6 15 -14 29 -17 32 -9 9 -33 54 -101 190 -104 209
-211 492 -299 785 -32 107 -124 449 -135 505 -2 8 -18 78 -35 155 -17 77 -35
160 -40 185 -5 25 -19 88 -30 140 -11 52 -23 106 -25 120 -3 14 -12 59 -20
100 -8 41 -20 98 -25 125 -14 69 -15 74 -45 220 -14 72 -28 141 -31 155 -12
70 -71 314 -111 464 -104 391 -187 575 -311 686 -123 111 -267 149 -560 147
-89 0 -164 -2 -165 -3z"/>
</g>
</svg>
